<?xml version="1.0" standalone="no"?>
<!DOCTYPE svg PUBLIC "-//W3C//DTD SVG 20010904//EN"
 "http://www.w3.org/TR/2001/REC-SVG-20010904/DTD/svg10.dtd">
<svg version="1.0" xmlns="http://www.w3.org/2000/svg"
 width="717.000000pt" height="204.000000pt" viewBox="0 0 717.000000 204.000000"
 preserveAspectRatio="xMidYMid meet">

<g transform="translate(0.000000,204.000000) scale(0.100000,-0.100000)"
fill="#000000" stroke="none">
<path d="M552 1786 c-181 -104 -195 -115 -221 -161 -147 -258 -150 -265 -128
-254 12 7 137 79 278 161 141 81 262 148 269 148 8 0 135 -71 284 -159 339
-199 313 -185 320 -163 9 28 1 181 -9 191 -6 5 -129 77 -275 161 -146 84 -278
160 -295 170 l-30 18 -193 -112z"/>
<path d="M880 1875 c14 -8 138 -79 275 -158 l250 -143 1 -348 c1 -191 3 -349
5 -351 2 -2 44 19 92 47 l87 51 0 352 0 353 -187 106 -187 106 -181 0 c-161
-1 -177 -2 -155 -15z"/>
<path d="M453 1452 l-303 -176 0 -227 0 -226 88 -154 87 -154 5 329 5 329 280
163 c154 89 289 169 299 176 18 13 15 17 -50 53 -38 21 -78 44 -89 51 -18 11
-53 -7 -322 -164z"/>
<path d="M2031 1616 c-8 -9 -11 -117 -9 -377 l3 -364 210 1 c191 1 216 3 280
24 58 18 80 32 125 79 70 70 95 143 95 271 0 226 -105 344 -331 370 -136 15
-359 13 -373 -4z m338 -20 c58 -31 125 -131 151 -225 19 -71 14 -199 -10 -270
-50 -149 -138 -226 -250 -218 l-45 3 -3 362 -2 362 65 0 c38 0 78 -6 94 -14z"/>
<path d="M1640 1268 l0 -326 -147 -90 c-82 -50 -218 -130 -304 -179 l-157 -88
90 -53 90 -52 304 177 304 177 0 225 0 224 -86 151 c-48 83 -88 153 -90 155
-2 2 -4 -142 -4 -321z"/>
<path d="M2892 1458 c-9 -9 -12 -88 -12 -294 0 -320 -8 -294 90 -294 94 0 90
-6 90 141 l0 129 25 0 c20 0 39 -22 110 -125 48 -69 95 -130 105 -135 23 -12
157 -13 164 -1 3 5 -26 50 -64 100 -67 86 -73 91 -108 91 -53 0 -108 17 -139
44 l-26 23 77 6 c112 10 162 34 188 93 34 77 15 155 -48 194 -55 35 -423 57
-452 28z m307 -34 c18 -23 21 -41 21 -121 0 -91 -1 -96 -29 -124 -25 -24 -37
-29 -80 -29 l-51 0 0 150 0 150 59 0 c52 0 62 -3 80 -26z"/>
<path d="M3769 1463 c-9 -2 -22 -16 -29 -31 -106 -228 -240 -539 -236 -549 8
-19 175 -18 182 1 3 8 -13 56 -35 106 l-40 91 111 -3 110 -3 42 -93 c23 -51
49 -98 57 -103 23 -14 169 -11 175 4 4 11 -152 373 -231 539 -21 43 -53 56
-106 41z m1 -246 c28 -65 50 -121 47 -123 -2 -3 -52 -3 -110 -2 l-106 3 35 80
c20 44 44 100 55 124 11 24 21 42 23 40 2 -2 27 -57 56 -122z"/>
<path d="M4071 1461 c-13 -8 162 -545 187 -574 13 -15 30 -17 106 -15 l91 3
40 118 c22 64 42 117 45 117 3 0 21 -44 39 -97 51 -149 45 -143 151 -143 52 0
92 4 95 11 14 21 185 531 185 549 0 10 -5 22 -12 26 -17 11 -171 16 -185 6
-10 -6 0 -46 39 -165 l52 -156 -39 -121 c-21 -66 -42 -120 -45 -120 -3 0 -45
120 -95 267 -49 147 -97 275 -107 285 -14 14 -34 18 -91 18 -40 0 -78 -5 -84
-11 -8 -8 4 -54 40 -164 l51 -154 -39 -121 c-21 -66 -42 -120 -45 -120 -3 0
-45 120 -95 267 -49 147 -98 275 -108 285 -14 14 -32 18 -91 17 -40 -1 -78 -4
-85 -8z"/>
<path d="M5268 1463 c-10 -2 -26 -23 -37 -46 -157 -348 -231 -522 -227 -533 8
-20 174 -20 182 0 3 7 -13 53 -35 102 l-40 89 106 3 c59 1 110 -1 114 -5 4 -4
23 -46 43 -93 21 -47 44 -91 53 -97 21 -16 169 -18 178 -2 4 6 -50 138 -120
294 -139 310 -138 309 -217 288z m52 -368 c0 -3 -49 -5 -110 -5 -60 0 -110 2
-110 4 0 5 89 206 102 230 9 16 19 -1 64 -103 30 -67 54 -124 54 -126z"/>
<path d="M5722 1458 c-19 -19 -17 -561 2 -577 9 -7 42 -11 88 -9 l73 3 3 133
3 132 24 0 c20 0 39 -21 102 -112 109 -159 108 -158 190 -158 37 0 74 4 81 8
9 7 -5 32 -55 98 l-68 89 -62 7 c-62 7 -110 25 -131 51 -10 12 1 15 69 21 137
11 182 44 194 140 11 89 -23 142 -106 167 -55 16 -392 22 -407 7z m304 -29
c23 -25 36 -103 28 -169 -10 -77 -44 -110 -113 -110 l-51 0 0 149 c0 167 -4
159 76 153 25 -3 49 -11 60 -23z"/>
<path d="M6599 1464 c-20 -6 -274 -568 -264 -583 3 -7 42 -11 91 -11 67 0 86
3 91 15 3 9 -11 52 -31 96 -20 45 -36 85 -36 90 0 6 44 9 107 7 l106 -3 43
-94 c23 -51 48 -97 55 -102 24 -15 169 -11 175 5 4 11 -206 499 -242 559 -10
18 -65 30 -95 21z m0 -242 c28 -63 51 -118 51 -123 0 -5 -49 -9 -110 -9 l-109
0 33 78 c70 161 77 175 80 171 2 -2 27 -55 55 -117z"/>
<path d="M468 1189 l-88 -51 0 -353 0 -353 185 -106 185 -106 181 2 180 3
-273 155 -273 155 -5 353 -5 352 -87 -51z"/>
<path d="M611 669 l0 -104 304 -176 305 -177 192 112 193 111 86 150 c48 83
86 152 84 153 -2 2 -124 -67 -272 -153 -147 -87 -272 -158 -278 -158 -5 0
-139 75 -297 167 -158 91 -294 169 -303 172 -13 5 -15 -9 -14 -97z"/>
</g>
</svg>
